<?xml version="1.0" standalone="no"?>
<!DOCTYPE svg PUBLIC "-//W3C//DTD SVG 20010904//EN"
 "http://www.w3.org/TR/2001/REC-SVG-20010904/DTD/svg10.dtd">
<svg version="1.0" xmlns="http://www.w3.org/2000/svg"
 width="20.000000pt" height="20.000000pt" viewBox="0 0 20.000000 20.000000"
 preserveAspectRatio="xMidYMid meet">

<g transform="translate(0.000000,20.000000) scale(0.100000,-0.100000)"
fill="#000000" stroke="none">
<path d="M24 157 c-3 -8 -4 -39 -2 -68 l3 -54 75 0 75 0 0 65 0 65 -73 3 c-55
2 -74 0 -78 -11z m106 -27 c-31 -24 -29 -24 -60 0 l-25 20 55 0 55 0 -25 -20z
m-59 -21 l29 -20 29 20 c16 12 32 21 35 21 3 0 6 -18 6 -40 l0 -40 -70 0 -70
0 0 40 c0 22 3 40 6 40 3 0 19 -9 35 -21z"/>
</g>
</svg>
